# xmcd CD database file
#
# Track frame offsets:
#	150
#	16467
#	35260
#	49577
#	63742
#	94985
#	112415
#	134465
#	157775
#	178855
#	195815
#	210940
#
# Disc length: 3129 seconds
#
# Revision: 0
# Processed by: cddbd v1.5.1PL0 Copyright (c) Steve Scherf et al.
# Submitted via: CDex 1.51
#
DISCID=a00c370c
DTITLE=Nina Simone - Collection Legende
DYEAR=1999
DGENRE=Rhythmic Soul
TTITLE0=My baby just cares for me
TTITLE1=I love you Porgy
TTITLE2=Don't smoke in bed
TTITLE3=He's got the whole world in his hands
TTITLE4=The house of the rising sun
TTITLE5=Don't let me be misunderstood
TTITLE6=Four women
TTITLE7=Young, gifted and black
TTITLE8=Ain't got no... I got life
TTITLE9=You'll never walk alone
TTITLE10=Love me or leave me
TTITLE11=My baby just cares for me [Extended Mix]
EXTD=YEAR: 1999
EXTT0=
EXTT1=
EXTT2=
EXTT3=
EXTT4=
EXTT5=
EXTT6=
EXTT7=
EXTT8=
EXTT9=
EXTT10=
EXTT11=
PLAYORDER=
